<?xml version="1.0" encoding="UTF-8"?>
<svg id="Layer_1" data-name="Layer 1" xmlns="http://www.w3.org/2000/svg" viewBox="0 0 690.47 247.11">
  <defs>
    <style>
      .cls-1 {
        fill: #0d1bd4;
      }

      .cls-1, .cls-2 {
        fill-rule: evenodd;
        stroke-width: 0px;
      }

      .cls-2 {
        fill: #000;
      }
    </style>
  </defs>
  <g>
    <path class="cls-2" d="M352.01,151.85h-21.52l-27.35-38.67c-2.02.05-3.66.08-4.94.08-.5,0-1.03-.03-1.64-.05-.58-.03-1.19-.03-1.84-.03v24.04c0,5.2.55,8.44,1.64,9.71,1.51,1.76,3.78,2.64,6.79,2.64h3.18v2.28h-34.59v-2.28h3.03c3.41,0,5.85-1.14,7.32-3.42.83-1.27,1.26-4.24,1.26-8.93v-53.47c0-5.2-.53-8.44-1.61-9.71-1.59-1.81-3.91-2.72-6.96-2.72h-3.03v-2.28h29.41c8.58,0,14.88.65,18.97,1.92,4.06,1.29,7.49,3.68,10.34,7.09,2.83,3.44,4.24,7.53,4.24,12.29,0,5.1-1.61,9.52-4.84,13.28-3.23,3.73-8.22,6.39-15.03,7.95l16.62,23.73c3.86,5.46,7.14,9.08,9.86,10.9,2.75,1.79,6.31,2.9,10.7,3.36v2.28h0ZM294.72,109.31c.76,0,1.39.03,1.97.05.55.03,1.01.03,1.36.03,7.69,0,13.5-1.71,17.41-5.15,3.91-3.44,5.88-7.79,5.88-13.04s-1.59-9.34-4.74-12.58c-3.15-3.24-7.34-4.87-12.56-4.87-2.27,0-5.37.39-9.31,1.14v34.42Z"/>
    <path class="cls-2" d="M381.31,73.88v32.66h17.66c4.64,0,7.72-.7,9.23-2.12,2.07-1.86,3.23-5.15,3.48-9.86h2.22v28.83h-2.22c-.56-4.06-1.11-6.63-1.72-7.74-.68-1.48-1.84-2.61-3.46-3.42-1.64-.8-4.14-1.22-7.54-1.22h-17.66v27.3c0,3.68.15,5.93.43,6.7.3.78.86,1.4,1.66,1.86.83.44,2.35.67,4.54.67h13.67c4.54,0,7.85-.31,9.91-.93,2.07-.65,4.06-1.92,5.98-3.83,2.47-2.54,4.99-6.34,7.54-11.47h2.37l-6.94,20.78h-62.16v-2.28h2.8c1.92,0,3.73-.47,5.47-1.37,1.24-.65,2.07-1.63,2.55-2.95.45-1.32.71-3.96.71-7.97v-53.83c0-5.2-.53-8.44-1.56-9.71-1.44-1.6-3.81-2.41-7.16-2.41h-2.8v-2.28h62.16l.88,18.19h-2.3c-.83-4.4-1.77-7.4-2.78-9.03-1.01-1.6-2.5-2.85-4.47-3.7-1.64-.62-4.44-.91-8.43-.91h-22.1Z"/>
    <path class="cls-2" d="M461.12,149.67v2.28h-34.59v-2.28h2.88c3.3,0,5.73-.98,7.27-2.95.93-1.32,1.39-4.45,1.39-9.39v-53.47c0-4.19-.25-6.96-.73-8.33-.4-1.01-1.21-1.86-2.45-2.59-1.77-1.01-3.58-1.5-5.47-1.5h-2.88v-2.28h34.59v2.28h-2.95c-3.25,0-5.65,1.01-7.16,3.03-.98,1.27-1.49,4.4-1.49,9.39v53.47c0,4.19.25,6.94.76,8.26.38,1.01,1.21,1.89,2.5,2.64,1.74.98,3.53,1.45,5.4,1.45h2.95Z"/>
    <path class="cls-2" d="M465.15,69.18h21.95l49.29,62.09v-47.7c0-5.1-.58-8.28-1.72-9.55-1.41-1.71-3.73-2.56-6.94-2.56h-2.8v-2.28h28.08v2.28h-2.8c-3.46,0-5.9,1.06-7.32,3.18-.86,1.29-1.26,4.3-1.26,8.93v69.77h-2.14l-53.23-66.64v50.93c0,5.07.55,8.23,1.64,9.47,1.49,1.73,3.78,2.59,6.94,2.59h2.9v2.28h-28.1v-2.28h2.75c3.48,0,5.93-1.06,7.32-3.18.88-1.27,1.31-4.22,1.31-8.88v-57.53c-2.3-2.85-4.06-4.71-5.27-5.59-1.21-.88-3-1.73-5.35-2.54-1.14-.36-2.9-.52-5.25-.52v-2.28Z"/>
    <path class="cls-2" d="M593.37,67.24c10.44,0,19.5,4.06,27.19,12.24,7.67,8.15,11.53,18.35,11.53,30.59s-3.88,23.01-11.6,31.32c-7.74,8.28-17.1,12.42-28.08,12.42s-20.43-4.04-27.98-12.14c-7.57-8.07-11.35-18.56-11.35-31.45s4.36-23.86,13.09-32.17c7.57-7.22,16.65-10.82,27.19-10.82h0ZM592.26,71.7c-7.24,0-13.04,2.77-17.38,8.28-5.47,6.81-8.2,16.82-8.2,30.02s2.83,23.89,8.5,31.16c4.29,5.56,9.96,8.33,17.08,8.33,7.57,0,13.85-3.03,18.79-9.08,4.97-6.08,7.44-15.63,7.44-28.68,0-14.21-2.75-24.77-8.2-31.68-4.34-5.56-10.37-8.36-18.04-8.36Z"/>
  </g>
  <path class="cls-2" d="M195.78,58.46l-45.41,46.86-48.5-44.73c4.96-5.18,9.37-9.88,13.29-14.06,16.54-17.64,24.85-26.49,32.85-26.67,8.01-.15,16.72,8.35,34.08,25.32,4.04,3.95,8.59,8.39,13.69,13.28Z"/>
  <path class="cls-2" d="M146.12,109.93l-45.56,47.71c-6.22-5.81-11.73-10.79-16.62-15.22-16.9-15.29-25.38-22.96-25.56-30.36-.19-7.45,8.02-15.66,24.38-32.02,4.45-4.45,9.47-9.46,15.08-15.23l48.28,45.12Z"/>
  <path class="cls-2" d="M199.21,158.6c-5.5,5.64-10.29,10.69-14.56,15.18-16.2,17.07-24.33,25.64-32.31,25.8-8.18.18-17.32-8.69-35.44-26.34-3.54-3.44-7.51-7.3-11.86-11.47l45.58-47.48,48.59,44.31Z"/>
  <path class="cls-1" d="M258.1,106.56c.22,8.74-9.31,18.33-28.3,37.42-5.21,5.25-11.09,11.16-17.68,17.97l-57.08-52.3,54.57-55.99c7.24,6.82,13.63,12.65,19.3,17.82,19.3,17.61,28.98,26.44,29.19,35.08Z"/>
  <path class="cls-2" d="M300.44,208.31l8.19,1.14c-1.67,11.87-7.52,17.81-17.52,17.81-6.5,0-11.34-2.5-14.54-7.49-3.18-4.99-4.78-11.67-4.78-20.03,0-9.02,1.69-15.92,5.06-20.74,3.37-4.8,8.23-7.21,14.58-7.21,9.82,0,15.59,6.1,17.28,18.29l-8.35,1.22c-.88-8.19-3.88-12.28-8.96-12.28-6.81,0-10.22,7.08-10.22,21.23,0,13.19,3.42,19.79,10.26,19.79,2.74,0,4.78-1,6.13-3.02,1.34-2.01,2.3-4.91,2.88-8.7h0ZM315.92,172.75h30.66v7.06h-21.83v15.33h17.1v7.14h-17.1v16.78h22.15v7.22h-30.98v-53.54h0ZM352.84,172.75h16.11c5.82,0,10.13,1.32,12.9,3.96,2.77,2.64,4.15,6.42,4.15,11.36,0,6.58-2.74,11.24-8.23,13.98l10.15,24.24h-9.57l-8.32-22.39h-8.36v22.39h-8.83v-53.54h0ZM361.67,179.58v17.5h6.81c3.04,0,5.27-.84,6.7-2.51,1.43-1.69,2.14-3.87,2.14-6.57,0-5.61-2.93-8.41-8.78-8.41h-6.88ZM405.13,172.75h10.06l14.29,53.54h-8.96l-3.36-13.4h-15.65l-3.32,13.4h-8.44l15.38-53.54h0ZM415.42,205.9l-6.13-24.52-6.06,24.52h12.19ZM434.71,172.75h13.1l10.65,38.6,10.92-38.6h12.62v53.54h-8.35v-45.7l-12.68,45.7h-6.42l-12.44-45.74v45.74h-7.38v-53.54h0ZM492.29,172.75h8.83v53.54h-8.83v-53.54h0ZM538.31,208.31l8.19,1.14c-1.67,11.87-7.52,17.81-17.52,17.81-6.5,0-11.34-2.5-14.54-7.49-3.18-4.99-4.78-11.67-4.78-20.03,0-9.02,1.69-15.92,5.06-20.74,3.37-4.8,8.23-7.21,14.58-7.21,9.82,0,15.59,6.1,17.28,18.29l-8.35,1.22c-.88-8.19-3.88-12.28-8.96-12.28-6.81,0-10.22,7.08-10.22,21.23,0,13.19,3.42,19.79,10.26,19.79,2.74,0,4.78-1,6.13-3.02,1.34-2.01,2.3-4.91,2.88-8.7h0ZM590.47,199.5c0,9.15-1.63,16.07-4.9,20.75-3.26,4.67-8.01,7.01-14.23,7.01s-11.02-2.33-14.34-7c-3.32-4.67-4.98-11.59-4.98-20.76s1.65-15.97,4.94-20.67c3.29-4.7,8.08-7.04,14.34-7.04s10.94,2.33,14.23,7c3.29,4.67,4.94,11.57,4.94,20.71h0ZM581.16,199.52c0-6.37-.74-11.37-2.21-15.02-1.47-3.65-4.05-5.48-7.72-5.48s-6.25,1.83-7.71,5.5c-1.46,3.67-2.19,8.67-2.19,15.01s.72,11.21,2.15,14.93c1.43,3.72,4.05,5.58,7.85,5.58,3.57,0,6.1-1.81,7.59-5.4,1.49-3.6,2.23-8.63,2.23-15.1h0ZM630.72,184.74l-7.55,2.62c-.9-2.85-2.06-4.95-3.52-6.31-1.44-1.35-3.44-2.03-5.95-2.03-2.33,0-4.13.7-5.4,2.07s-1.9,2.96-1.9,4.74c0,1.98.71,3.55,2.14,4.71,1.43,1.18,4.28,2.57,8.55,4.19,3.64,1.39,6.43,2.7,8.4,3.96,1.97,1.26,3.56,2.93,4.78,5.03,1.22,2.11,1.82,4.55,1.82,7.32,0,4.49-1.59,8.32-4.76,11.48-3.17,3.17-7.63,4.75-13.34,4.75-9.87,0-15.99-4.98-18.34-14.94l7.95-2.23c1.38,6.64,4.99,9.95,10.81,9.95,2.85,0,5-.75,6.49-2.23,1.47-1.48,2.21-3.32,2.21-5.51,0-1.61-.51-3.09-1.53-4.45-1.03-1.36-3.57-2.82-7.63-4.37-4.29-1.62-7.38-2.98-9.28-4.11-1.9-1.12-3.52-2.78-4.84-4.98-1.34-2.19-2.01-4.7-2.01-7.49,0-4.25,1.48-7.84,4.44-10.74,2.97-2.9,6.9-4.35,11.81-4.35,8.71,0,14.25,4.32,16.66,12.95Z"/>
</svg>