<?xml version="1.0" encoding="UTF-8"?>
<svg id="Layer_1" data-name="Layer 1" xmlns="http://www.w3.org/2000/svg" viewBox="0 0 229.61 219.85">
  <defs>
    <style>
      .cls-1 {
        fill: #fff;
        fill-rule: evenodd;
        stroke-width: 0px;
      }
    </style>
  </defs>
  <path class="cls-1" d="M152.35,58.66l-45.41,46.86-48.5-44.73c4.96-5.18,9.37-9.88,13.29-14.06,16.54-17.64,24.85-26.49,32.85-26.67,8.01-.15,16.72,8.35,34.08,25.32,4.04,3.95,8.59,8.39,13.69,13.28Z"/>
  <path class="cls-1" d="M102.69,110.13l-45.56,47.71c-6.22-5.81-11.73-10.79-16.62-15.22-16.9-15.29-25.38-22.96-25.56-30.36-.19-7.45,8.02-15.66,24.38-32.02,4.45-4.45,9.47-9.46,15.08-15.23l48.28,45.12Z"/>
  <path class="cls-1" d="M155.78,158.8c-5.5,5.64-10.29,10.69-14.56,15.18-16.2,17.07-24.33,25.64-32.31,25.8-8.18.18-17.32-8.69-35.44-26.34-3.54-3.44-7.51-7.3-11.86-11.47l45.58-47.48,48.59,44.31Z"/>
  <path class="cls-1" d="M214.67,106.76c.22,8.74-9.31,18.33-28.3,37.42-5.21,5.25-11.09,11.16-17.68,17.97l-57.08-52.3,54.57-55.99c7.24,6.82,13.63,12.65,19.3,17.82,19.3,17.61,28.98,26.44,29.19,35.08Z"/>
</svg>